<mxfile host="app.diagrams.net" modified="2023-04-30T07:21:17.966Z" agent="Mozilla/5.0 (Macintosh; Intel Mac OS X 10.15; rv:109.0) Gecko/20100101 Firefox/112.0" version="21.2.3" etag="ccZca_x2pdp8jp1CT7Bt" type="github">
  <diagram name="Page-1" id="_rjeUM0GodCOC49pjTvd">
    <mxGraphModel>
      <root>
        <mxCell id="0" />
        <mxCell id="1" parent="0" />
      </root>
    </mxGraphModel>
  </diagram>
</mxfile>
